:SAMPLES-PER-SECOND 30
:FULLY-SPECIFIED
:DEGREES
159
root  -65.201 35.8627 0.174276 -12.9261 -66.3169 40.2393
RightUpLeg  -71.7727 -35.2546 2.17367
RightLeg  55.3692 2.79051 3.88918
RightFoot  -8.78952 0.0152647 -2.93943
RightToes  5.82063e-011 0 -3.6325e-017
Spine  72.0772 -20.9409 17.9454
Spine1  -6.82345 -11.2627 -2.623
HEad  -40.6762 -12.9262 3.95133
LeftShoulder1  0.362263 -15.5209 7.47612
LeftArm  -71.2186 -67.714 1.55489
LeftForeArm  -9.33768 -13.8844 5.51824
LeftHand  -0.0413197 3.9747 1.42601
RightShoulder  0.230462 7.24224 -7.22374
RightArm  -59.6184 61.0776 -13.1018
RightForeArm  -35.799 3.90604 -3.7555
RightHand  -0.58669 11.8562 -4.37452
LeftUpLeg  -60.8662 -14.7948 -10.5337
LeftLeg  39.6056 -1.84938 -1.28041
LeftFoot  1.19714 -0.506108 4.53926
LeftToes  2.58842e-009 -1.78069e-010 3.24654e-012
160
root  -65.2001 36.1475 0.204445 -15.6322 -67.0369 42.2172
RightUpLeg  -70.2245 -35.047 1.62154
RightLeg  53.8909 3.42265 4.60021
RightFoot  -6.87588 0.156644 -5.31317
RightToes  5.82063e-011 0 -3.6325e-017
Spine  71.5961 -21.1653 17.9406
Spine1  -6.42493 -11.4201 -3.39336
HEad  -40.1839 -12.4788 4.5296
LeftShoulder1  0.335765 -15.8483 7.67565
LeftArm  -64.4344 -66.8362 -1.31397
LeftForeArm  -13.0788 -12.7857 5.57727
LeftHand  -0.0228794 4.37163 -0.185957
RightShoulder  0.221202 7.0361 -7.28092
RightArm  -59.7814 62.1262 -10.8741
RightForeArm  -34.8945 4.02979 -4.15711
RightHand  -0.737345 11.8352 -5.37106
LeftUpLeg  -58.9418 -14.0375 -11.1168
LeftLeg  37.8241 -1.81822 -1.16302
LeftFoot  1.78112 -0.499754 4.2503
LeftToes  2.58842e-009 -1.78069e-010 3.24654e-012
161
root  -65.2028 36.4412 0.311888 -19.8655 -68.0134 45.3275
RightUpLeg  -67.9371 -34.7589 0.33221
RightLeg  52.1852 4.22414 5.41799
RightFoot  -6.60442 0.141117 -4.47788
RightToes  5.82063e-011 0 -3.6325e-017
Spine  71.0915 -20.4211 17.7403
Spine1  -6.09874 -10.9123 -2.89494
HEad  -40.1687 -12.8064 4.81854
LeftShoulder1  0.54106 -15.8366 6.44787
LeftArm  -61.7626 -66.5293 -7.81379
LeftForeArm  -8.76018 -14.581 4.11983
LeftHand  -0.0324852 3.26136 0.891611
RightShoulder  0.298349 7.35411 -6.50054
RightArm  -57.1316 60.7007 -7.66175
RightForeArm  -32.1705 7.0858 -4.02734
RightHand  -0.580502 11.115 -4.49006
LeftUpLeg  -56.4734 -12.9719 -12.1253
LeftLeg  35.9559 -1.55249 -0.862899
LeftFoot  2.17334 -0.482658 3.95848
LeftToes  2.58842e-009 -1.78069e-010 3.24654e-012
162
root  -65.1779 36.7041 0.543408 -22.3131 -69.3567 46.937
RightUpLeg  -66.0798 -34.3447 -0.0108276
RightLeg  50.2992 5.14099 6.22042
RightFoot  -5.96394 0.15763 -4.21385
RightToes  5.82063e-011 0 -3.6325e-017
Spine  69.7332 -19.9257 18.3466
Spine1  -6.16055 -10.3233 -2.84998
HEad  -39.0856 -13.4946 4.66136
LeftShoulder1  0.821921 -15.1967 4.63128
LeftArm  -60.8434 -65.6696 -17.5173
LeftForeArm  0.313528 -17.9342 1.10451
LeftHand  -0.0320972 3.77763 0.874162
RightShoulder  0.516033 6.48978 -3.76916
RightArm  -53.677 60.6228 -3.83221
RightForeArm  -29.1298 11.1723 -2.65729
RightHand  -0.570311 10.9589 -4.45388
LeftUpLeg  -54.8394 -12.3632 -12.0176
LeftLeg  34.5461 -1.01992 -0.415914
LeftFoot  2.53094 -0.509363 4.06048
LeftToes  2.58842e-009 -1.78069e-010 3.24654e-012
163
root  -65.1477 37.0263 0.790476 -27.7449 -70.9274 50.2297
RightUpLeg  -62.0501 -33.4478 -1.73154
RightLeg  47.7909 6.21396 6.94557
RightFoot  -5.62299 0.126804 -3.28026
RightToes  5.82063e-011 0 -3.6325e-017
Spine  68.9798 -19.8273 17.6762
Spine1  -4.63659 -10.3237 -3.7281
HEad  -38.6932 -12.9174 5.48687
LeftShoulder1  1.13786 -15.0445 2.64696
LeftArm  -59.2053 -62.1174 -21.9997
LeftForeArm  5.9634 -21.2493 -2.92104
LeftHand  -0.033411 3.39806 0.669318
RightShoulder  0.671156 5.93697 -1.52219
RightArm  -54.4746 60.3647 2.77724
RightForeArm  -21.7373 16.2229 -0.188088
RightHand  -0.657831 10.6688 -5.15144
LeftUpLeg  -51.7431 -11.8144 -12.0109
LeftLeg  32.9717 0.152088 0.440982
LeftFoot  2.61616 -0.436783 3.43722
LeftToes  2.58842e-009 -1.78069e-010 3.24654e-012
164
root  -65.1461 37.3613 1.10972 -35.0276 -72.925 54.8742
RightUpLeg  -57.1467 -31.7392 -3.83347
RightLeg  44.9968 7.29481 7.41101
RightFoot  -4.90388 0.167511 -3.56298
RightToes  5.82063e-011 0 -3.6325e-017
Spine  68.5335 -19.343 17.0902
Spine1  -3.83364 -9.93616 -4.40938
HEad  -37.5268 -13.5334 5.98094
LeftShoulder1  1.60342 -15.0256 -0.221681
LeftArm  -51.016 -58.79 -27.8357
LeftForeArm  7.35401 -24.5791 -5.01223
LeftHand  -0.0856503 0.639136 2.07961
RightShoulder  0.906512 5.12478 2.399
RightArm  -55.866 59.1307 9.78648
RightForeArm  -11.9726 21.5906 4.1299
RightHand  -0.605973 10.4364 -4.84189
LeftUpLeg  -48.1612 -10.9161 -11.9562
LeftLeg  31.6274 1.56438 1.37824
LeftFoot  2.51831 -0.35436 2.78813
LeftToes  2.58842e-009 -1.78069e-010 3.24654e-012
165
root  -65.1425 37.6339 1.51506 -42.0425 -75.0914 59.1109
RightUpLeg  -52.6339 -31.2693 -4.45564
RightLeg  42.2894 9.25303 8.61063
RightFoot  -4.91893 0.133207 -2.95985
RightToes  5.82063e-011 0 -3.6325e-017
Spine  67.0014 -18.3056 17.0972
Spine1  -1.66932 -9.01541 -3.95879
HEad  -36.1051 -15.1605 5.49252
LeftShoulder1  1.85851 -14.3343 -2.26745
LeftArm  -42.7033 -55.8261 -34.4086
LeftForeArm  7.3387 -28.9598 -5.88029
LeftHand  -0.0956948 0.668383 2.28459
RightShoulder  1.09445 3.97698 7.00492
RightArm  -51.7529 57.6203 13.5505
RightForeArm  -6.87357 26.3809 6.14738
RightHand  -0.47458 9.84608 -4.0005
LeftUpLeg  -45.1584 -10.4234 -11.1836
LeftLeg  31.4143 2.8079 2.18351
LeftFoot  2.50712 -0.275474 2.14559
LeftToes  2.58842e-009 -1.78069e-010 3.24654e-012
166
root  -65.1583 37.9132 1.98651 -53.4946 -77.233 67.591
RightUpLeg  -47.827 -29.6549 -6.01577
RightLeg  39.7321 11.046 9.41054
RightFoot  -3.79413 0.157867 -2.79188
RightToes  5.82063e-011 0 -3.6325e-017
Spine  66.0601 -17.5847 16.5076
Spine1  -0.541194 -8.55828 -4.08621
HEad  -35.2685 -15.4457 5.57161
LeftShoulder1  2.19136 -12.7167 -5.71276
LeftArm  -34.1811 -52.4186 -39.1959
LeftForeArm  6.62464 -32.7815 -6.87991
LeftHand  -0.0783406 0.678528 1.88642
RightShoulder  1.05527 2.77248 9.51748
RightArm  -43.9371 54.8344 22.0168
RightForeArm  -4.6915 32.0591 7.32016
RightHand  -0.361721 8.50847 -3.40444
LeftUpLeg  -42.1783 -10.1895 -10.4525
LeftLeg  31.7194 4.07885 3.05632
LeftFoot  2.97929 -0.0951014 0.613542
LeftToes  2.58842e-009 -1.78069e-010 3.24654e-012
